<svg width="30" height="28" viewBox="0 0 30 28" fill="none" xmlns="http://www.w3.org/2000/svg">
<path d="M21.2288 0.375C18.6913 0.375 16.2559 1.55625 14.6663 3.41563C13.0768 1.55625 10.6413 0.375 8.10384 0.375C3.60488 0.375 0.0830078 3.89688 0.0830078 8.39583C0.0830078 13.901 5.04134 18.4 12.5518 25.2177L14.6663 27.1354L16.7809 25.2177C24.2913 18.4 29.2497 13.901 29.2497 8.39583C29.2497 3.89688 25.7278 0.375 21.2288 0.375ZM14.8195 23.0594L14.6663 23.1979L14.5132 23.0594C7.57884 16.7667 2.99967 12.6104 2.99967 8.39583C2.99967 5.48646 5.19447 3.29167 8.10384 3.29167C10.3497 3.29167 12.5372 4.74271 13.3028 6.73333H16.0226C16.7955 4.74271 18.983 3.29167 21.2288 3.29167C24.1382 3.29167 26.333 5.48646 26.333 8.39583C26.333 12.6104 21.7538 16.7667 14.8195 23.0594Z" fill="#55E8DF"/>
</svg>
