<svg width="83" height="83" viewBox="0 0 83 83" fill="none" xmlns="http://www.w3.org/2000/svg">
<path d="M30 39.4761C30 37.9391 30.4469 36.6018 31.3408 35.4644C32.2665 34.2963 33.5275 33.4048 35.1236 32.79C36.7198 32.1444 38.5713 31.8217 40.6783 31.8217C41.7956 31.8217 42.9288 31.8985 44.0781 32.0522C45.2592 32.2059 46.2967 32.4519 47.1906 32.79V31.2683C47.1906 29.5776 46.6638 28.2557 45.6104 27.3028C44.5569 26.3498 43.0406 25.8733 41.0613 25.8733C39.6567 25.8733 38.3319 26.1193 37.0869 26.6111C35.8419 27.0722 34.5171 27.7331 33.1125 28.5939L31.3408 25.1817C33.0008 24.1057 34.6608 23.3065 36.3208 22.7839C38.0127 22.2613 39.7844 22 41.636 22C44.9879 22 47.6215 22.8607 49.5369 24.5822C51.4842 26.273 52.4579 28.6861 52.4579 31.8217V40.8133C52.4579 41.3974 52.5536 41.8124 52.7452 42.0583C52.9686 42.3043 53.3358 42.4426 53.8465 42.4733V46.5311C53.3677 46.6233 52.9367 46.6848 52.5536 46.7156C52.1706 46.7463 51.8513 46.7617 51.596 46.7617C50.4786 46.7617 49.6327 46.5004 49.0581 45.9778C48.4835 45.4552 48.1483 44.8404 48.0525 44.1333L47.9088 42.75C46.8235 44.1026 45.4348 45.1478 43.7429 45.8856C42.051 46.6233 40.3431 46.9922 38.6192 46.9922C36.9592 46.9922 35.4748 46.6694 34.166 46.0239C32.8571 45.3476 31.8356 44.4407 31.1013 43.3033C30.3671 42.1659 30 40.8902 30 39.4761ZM45.9456 40.9517C46.3286 40.552 46.6319 40.1524 46.8554 39.7528C47.0788 39.3531 47.1906 38.9996 47.1906 38.6922V35.9256C46.2967 35.5874 45.355 35.3415 44.3654 35.1878C43.3758 35.0033 42.4021 34.9111 41.4444 34.9111C39.529 34.9111 37.9648 35.28 36.7517 36.0178C35.5706 36.7556 34.98 37.77 34.98 39.0611C34.98 39.7681 35.1715 40.4444 35.5546 41.09C35.9696 41.7356 36.5442 42.2581 37.2785 42.6578C38.0446 43.0574 38.9863 43.2572 40.1036 43.2572C41.2529 43.2572 42.3542 43.042 43.4077 42.6117C44.4611 42.1813 45.3071 41.628 45.9456 40.9517Z" fill="white"/>
<path d="M71.7217 46.9922C69.7106 46.9922 67.9388 46.5311 66.4065 45.6089C64.8742 44.6867 63.6612 43.4878 62.7673 42.0122V56.3528H57.5V22.415H62.1448V26.7494C63.1025 25.3046 64.3475 24.1518 65.8798 23.2911C67.4121 22.4304 69.12 22 71.0035 22C72.7273 22 74.3075 22.3381 75.744 23.0144C77.1806 23.66 78.4256 24.5669 79.479 25.735C80.5325 26.9031 81.3465 28.2404 81.9212 29.7467C82.5277 31.2222 82.831 32.79 82.831 34.45C82.831 36.7556 82.3521 38.8613 81.3944 40.7672C80.4687 42.6731 79.1598 44.1948 77.4679 45.3322C75.8079 46.4389 73.8925 46.9922 71.7217 46.9922ZM69.9979 42.6578C71.1152 42.6578 72.1208 42.4272 73.0146 41.9661C73.9404 41.505 74.7225 40.8902 75.361 40.1217C76.0313 39.3531 76.5421 38.477 76.8933 37.4933C77.2444 36.5096 77.42 35.4952 77.42 34.45C77.42 33.3433 77.2285 32.2981 76.8454 31.3144C76.4623 30.3307 75.9037 29.47 75.1694 28.7322C74.4671 27.9944 73.6371 27.4104 72.6794 26.98C71.7537 26.5496 70.7321 26.3344 69.6148 26.3344C68.9444 26.3344 68.2421 26.4574 67.5079 26.7033C66.7737 26.9493 66.0873 27.2874 65.4488 27.7178C64.8104 28.1481 64.2517 28.6554 63.7729 29.2394C63.294 29.8235 62.9588 30.4383 62.7673 31.0839V37.4011C63.2142 38.3848 63.8048 39.2763 64.539 40.0756C65.2733 40.8441 66.1192 41.4743 67.0769 41.9661C68.0346 42.4272 69.0083 42.6578 69.9979 42.6578Z" fill="white"/>
<path d="M28.5385 79H3V82.6889H28.5385V79Z" fill="#FEFDFC"/>
<path d="M82.5385 14H57V17.6889H82.5385V14Z" fill="#FEFDFC"/>
<path d="M15.9767 74.9922C14.0294 74.9922 12.2577 74.6694 10.6615 74.0239C9.09731 73.3476 7.74058 72.4407 6.59135 71.3033C5.44212 70.1352 4.54827 68.8133 3.90981 67.3378C3.30327 65.8315 3 64.233 3 62.5422C3 60.2674 3.54269 58.1924 4.62807 56.3172C5.71346 54.4113 7.22981 52.8896 9.17711 51.7522C11.1244 50.5841 13.4069 50 16.0246 50C18.6423 50 20.8929 50.5841 22.7763 51.7522C24.6917 52.8896 26.1762 54.3959 27.2296 56.2711C28.2831 58.1463 28.8098 60.1598 28.8098 62.3117C28.8098 62.6806 28.7938 63.0341 28.7619 63.3722C28.73 63.6796 28.6981 63.9409 28.6661 64.1561H8.6025C8.69827 65.5702 9.09731 66.8152 9.79962 67.8911C10.5338 68.9363 11.4596 69.7663 12.5769 70.3811C13.6942 70.9652 14.8913 71.2572 16.1683 71.2572C17.5729 71.2572 18.8977 70.9191 20.1427 70.2428C21.4196 69.5665 22.2815 68.675 22.7285 67.5683L27.2296 68.8133C26.6869 69.9815 25.8569 71.042 24.7396 71.995C23.6542 72.9172 22.3613 73.655 20.861 74.2083C19.3606 74.7309 17.7325 74.9922 15.9767 74.9922ZM8.45885 60.79H23.5904C23.4946 59.4067 23.0796 58.1924 22.3454 57.1472C21.6431 56.0713 20.7333 55.2413 19.616 54.6572C18.5306 54.0424 17.3175 53.735 15.9767 53.735C14.6679 53.735 13.4548 54.0424 12.3375 54.6572C11.2521 55.2413 10.3583 56.0713 9.65596 57.1472C8.95365 58.1924 8.55462 59.4067 8.45885 60.79Z" fill="white"/>
<path d="M35.7462 51L41.6838 59.2539L42.1148 60.0378L42.5458 59.2539L48.4356 51H54.1339L45.1315 63.0811L54.2296 75.1161H48.5313L42.5458 66.9083L42.1148 66.1706L41.6838 66.9083L35.6983 75.1161H30L39.0981 63.1272L30.0958 51H35.7462Z" fill="white"/>
</svg>
