<svg width="68" height="150" viewBox="0 0 68 150" fill="none" xmlns="http://www.w3.org/2000/svg">
<path d="M34 41.3913L0 8.57006L8.45541 0.465332L34 25.1244L59.5446 0.465332L68 8.57006L34 41.3913Z" fill="url(#paint0_linear_546_26)"/>
<path d="M34 41.3913L0 8.57006L8.45541 0.465332L34 25.1244L59.5446 0.465332L68 8.57006L34 41.3913Z" fill="url(#paint1_linear_546_26)"/>
<path d="M34 41.3913L0 8.57006L8.45541 0.465332L34 25.1244L59.5446 0.465332L68 8.57006L34 41.3913Z" fill="url(#paint2_linear_546_26)"/>
<path d="M34 41.3913L0 8.57006L8.45541 0.465332L34 25.1244L59.5446 0.465332L68 8.57006L34 41.3913Z" fill="url(#paint3_linear_546_26)"/>
<path d="M34 41.3913L0 8.57006L8.45541 0.465332L34 25.1244L59.5446 0.465332L68 8.57006L34 41.3913Z" fill="url(#paint4_linear_546_26)"/>
<path d="M34 149.196L0 117.176L8.45541 109.269L34 133.326L59.5446 109.269L68 117.176L34 149.196Z" fill="url(#paint5_linear_546_26)"/>
<path d="M34 149.196L0 117.176L8.45541 109.269L34 133.326L59.5446 109.269L68 117.176L34 149.196Z" fill="url(#paint6_linear_546_26)"/>
<path d="M34 149.196L0 117.176L8.45541 109.269L34 133.326L59.5446 109.269L68 117.176L34 149.196Z" fill="url(#paint7_linear_546_26)"/>
<path d="M34 149.196L0 117.176L8.45541 109.269L34 133.326L59.5446 109.269L68 117.176L34 149.196Z" fill="url(#paint8_linear_546_26)"/>
<path d="M34 149.196L0 117.176L8.45541 109.269L34 133.326L59.5446 109.269L68 117.176L34 149.196Z" fill="url(#paint9_linear_546_26)"/>
<path d="M34 94.2957L0 62.275L8.45541 54.3679L34 78.4255L59.5446 54.3679L68 62.275L34 94.2957Z" fill="url(#paint10_linear_546_26)"/>
<path d="M34 94.2957L0 62.275L8.45541 54.3679L34 78.4255L59.5446 54.3679L68 62.275L34 94.2957Z" fill="url(#paint11_linear_546_26)"/>
<path d="M34 94.2957L0 62.275L8.45541 54.3679L34 78.4255L59.5446 54.3679L68 62.275L34 94.2957Z" fill="url(#paint12_linear_546_26)"/>
<path d="M34 94.2957L0 62.275L8.45541 54.3679L34 78.4255L59.5446 54.3679L68 62.275L34 94.2957Z" fill="url(#paint13_linear_546_26)"/>
<path d="M34 94.2957L0 62.275L8.45541 54.3679L34 78.4255L59.5446 54.3679L68 62.275L34 94.2957Z" fill="url(#paint14_linear_546_26)"/>
<defs>
<linearGradient id="paint0_linear_546_26" x1="34" y1="0.465332" x2="34" y2="41.3913" gradientUnits="userSpaceOnUse">
<stop stop-color="#6E27F1"/>
<stop offset="1" stop-color="#55E8DF"/>
</linearGradient>
<linearGradient id="paint1_linear_546_26" x1="34" y1="0.465332" x2="34" y2="41.3913" gradientUnits="userSpaceOnUse">
<stop stop-color="#6E27F1"/>
<stop offset="1" stop-color="#55E8DF"/>
</linearGradient>
<linearGradient id="paint2_linear_546_26" x1="34" y1="0.465332" x2="34" y2="41.3913" gradientUnits="userSpaceOnUse">
<stop stop-color="#6E27F1"/>
<stop offset="1" stop-color="#55E8DF"/>
</linearGradient>
<linearGradient id="paint3_linear_546_26" x1="34" y1="0.465332" x2="34" y2="41.3913" gradientUnits="userSpaceOnUse">
<stop stop-color="#6E27F1"/>
<stop offset="1" stop-color="#55E8DF"/>
</linearGradient>
<linearGradient id="paint4_linear_546_26" x1="34" y1="0.465332" x2="34" y2="41.3913" gradientUnits="userSpaceOnUse">
<stop stop-color="#6E27F1"/>
<stop offset="1" stop-color="#55E8DF"/>
</linearGradient>
<linearGradient id="paint5_linear_546_26" x1="34" y1="109.269" x2="34" y2="149.196" gradientUnits="userSpaceOnUse">
<stop stop-color="#6E27F1"/>
<stop offset="1" stop-color="#55E8DF"/>
</linearGradient>
<linearGradient id="paint6_linear_546_26" x1="34" y1="109.269" x2="34" y2="149.196" gradientUnits="userSpaceOnUse">
<stop stop-color="#6E27F1"/>
<stop offset="1" stop-color="#55E8DF"/>
</linearGradient>
<linearGradient id="paint7_linear_546_26" x1="34" y1="109.269" x2="34" y2="149.196" gradientUnits="userSpaceOnUse">
<stop stop-color="#6E27F1"/>
<stop offset="1" stop-color="#55E8DF"/>
</linearGradient>
<linearGradient id="paint8_linear_546_26" x1="34" y1="109.269" x2="34" y2="149.196" gradientUnits="userSpaceOnUse">
<stop stop-color="#6E27F1"/>
<stop offset="1" stop-color="#55E8DF"/>
</linearGradient>
<linearGradient id="paint9_linear_546_26" x1="34" y1="109.269" x2="34" y2="149.196" gradientUnits="userSpaceOnUse">
<stop stop-color="#6E27F1"/>
<stop offset="1" stop-color="#55E8DF"/>
</linearGradient>
<linearGradient id="paint10_linear_546_26" x1="34" y1="54.3679" x2="34" y2="94.2957" gradientUnits="userSpaceOnUse">
<stop stop-color="#6E27F1"/>
<stop offset="1" stop-color="#55E8DF"/>
</linearGradient>
<linearGradient id="paint11_linear_546_26" x1="34" y1="54.3679" x2="34" y2="94.2957" gradientUnits="userSpaceOnUse">
<stop stop-color="#6E27F1"/>
<stop offset="1" stop-color="#55E8DF"/>
</linearGradient>
<linearGradient id="paint12_linear_546_26" x1="34" y1="54.3679" x2="34" y2="94.2957" gradientUnits="userSpaceOnUse">
<stop stop-color="#6E27F1"/>
<stop offset="1" stop-color="#55E8DF"/>
</linearGradient>
<linearGradient id="paint13_linear_546_26" x1="34" y1="54.3679" x2="34" y2="94.2957" gradientUnits="userSpaceOnUse">
<stop stop-color="#6E27F1"/>
<stop offset="1" stop-color="#55E8DF"/>
</linearGradient>
<linearGradient id="paint14_linear_546_26" x1="34" y1="54.3679" x2="34" y2="94.2957" gradientUnits="userSpaceOnUse">
<stop stop-color="#6E27F1"/>
<stop offset="1" stop-color="#55E8DF"/>
</linearGradient>
</defs>
</svg>
