<svg width="144" height="132" viewBox="0 0 144 132" fill="none" xmlns="http://www.w3.org/2000/svg">
<path d="M18.75 19V0.25H31.25V19H50V31.5H31.25V50.25H18.75V31.5H0V19H18.75ZM37.5 56.5V37.75H56.25V19H100L111.438 31.5H131.25C138.125 31.5 143.75 37.125 143.75 44V119C143.75 125.875 138.125 131.5 131.25 131.5H31.25C24.375 131.5 18.75 125.875 18.75 119V56.5H37.5ZM81.25 112.75C98.5 112.75 112.5 98.75 112.5 81.5C112.5 64.25 98.5 50.25 81.25 50.25C64 50.25 50 64.25 50 81.5C50 98.75 64 112.75 81.25 112.75ZM61.25 81.5C61.25 92.5625 70.1875 101.5 81.25 101.5C92.3125 101.5 101.25 92.5625 101.25 81.5C101.25 70.4375 92.3125 61.5 81.25 61.5C70.1875 61.5 61.25 70.4375 61.25 81.5Z" fill="#55E8DF"/>
</svg>
